<?xml version="1.0" encoding="utf-8"?>
<svg xmlns="http://www.w3.org/2000/svg" fill="none" height="112" viewBox="0 0 136 112" width="136">
<g id="Ilus / Ahorra">
<g id="Group">
<path clip-rule="evenodd" d="M66.8566 104.658C91.5785 104.658 111.724 103.132 111.724 101.293C111.724 99.4308 91.5785 97.9277 66.8566 97.9277C42.1347 97.9277 21.9893 99.4532 21.9893 101.293C21.9893 103.132 42.1571 104.658 66.8566 104.658Z" fill="#1D4D8B" fill-rule="evenodd" id="Vector"/>
<path d="M101.899 27.8451C102.796 27.8451 103.648 28.0694 104.411 28.4508C105.196 25.7139 107.709 23.6948 110.715 23.6948C113.766 23.6948 116.346 25.7812 117.064 28.6302C117.894 28.1367 118.858 27.8675 119.868 27.8675C122.919 27.8675 125.409 30.3576 125.409 33.4086C125.409 33.6105 125.387 33.8348 125.364 34.0367H96.4023C96.3799 33.8348 96.3574 33.6105 96.3574 33.4086C96.3574 30.3352 98.8251 27.8451 101.899 27.8451Z" fill="#D4ECF2" id="Vector_2"/>
<path d="M20.8005 79.2854C22.1465 79.2854 23.4252 79.6219 24.5693 80.2052C25.7583 76.0774 29.5496 73.0488 34.0363 73.0488C38.6352 73.0488 42.4714 76.1895 43.5706 80.4295C44.8045 79.6892 46.2402 79.263 47.7882 79.263C52.3871 79.263 56.0886 82.9869 56.0886 87.5634C56.0886 87.8775 56.0662 88.1916 56.0213 88.5056H12.5673C12.5224 88.1916 12.5 87.8775 12.5 87.5634C12.5 83.0094 16.224 79.2854 20.8005 79.2854Z" fill="#D4ECF2" id="Vector_3"/>
<g id="Group_2">
<path d="M64.6133 17.7049L65.9593 22.3038L67.3053 17.7049L65.9593 13.106L64.6133 17.7049Z" fill="#FDC961" id="Vector_4"/>
<path d="M65.9592 16.3589L61.3379 17.7049L65.9592 19.0509L70.5581 17.7049L65.9592 16.3589Z" fill="#FDC961" id="Vector_5"/>
</g>
<g id="Group_3">
<path d="M111.073 84.3777L112.419 88.9991L113.788 84.3777L112.419 79.7788L111.073 84.3777Z" fill="#FDC961" id="Vector_6"/>
<path d="M112.419 83.0317L107.82 84.3778L112.419 85.7238L117.041 84.3778L112.419 83.0317Z" fill="#FDC961" id="Vector_7"/>
</g>
<path d="M98.0176 58.0185V66.162C98.0176 67.7099 99.2963 68.9886 100.844 68.9886H106.677C108.225 68.9886 109.504 67.7099 109.504 66.162V58.0185C109.504 56.4706 108.225 55.1919 106.677 55.1919H100.844C99.2963 55.1919 98.0176 56.4706 98.0176 58.0185Z" fill="#5DA3EE" id="Vector_8"/>
<path d="M33.4307 62.079C33.4307 66.2516 34.2831 70.2224 35.8086 73.8342C40.43 84.6921 51.1981 92.3644 63.6937 92.3644H72.3531C83.4129 92.3644 93.1267 86.3746 98.3986 77.4685C101.068 72.9593 102.616 67.6874 102.616 62.1014C102.616 57.9287 101.764 53.958 100.238 50.3461C95.6168 39.4882 84.8486 31.8159 72.3531 31.8159H63.6937C52.3423 31.8159 42.3817 38.1422 37.222 47.4746C34.7991 51.8043 33.4307 56.7846 33.4307 62.079Z" fill="#5DA3EE" id="Vector_9"/>
<path d="M58.5786 79.5096L61.4053 97.8379C61.7867 99.2512 60.7098 100.642 59.2292 100.642H51.8037C50.2109 100.642 48.7527 99.7448 48.0348 98.3314L36.5039 75.3369L58.5786 79.5096Z" fill="#5DA3EE" id="Vector_10"/>
<path d="M75.4711 79.8238L73.2053 97.838C72.8239 99.2513 73.9007 100.642 75.3813 100.642H82.8069C84.3997 100.642 85.8579 99.7449 86.5758 98.3316L98.4207 77.4458L75.4711 79.8238Z" fill="#5DA3EE" id="Vector_11"/>
<g id="Group_4">
<path d="M22.8865 67.3283C21.9892 65.4439 21.5629 63.1781 21.7424 61.1142C21.8322 60.1046 22.0565 59.1624 22.4154 58.3099C21.2713 57.6594 19.9702 57.2107 18.5568 56.9864C18.2203 56.9415 17.996 56.605 18.0409 56.2685C18.0857 55.932 18.4222 55.7076 18.7587 55.7525C20.3067 55.9993 21.72 56.4928 22.9763 57.1883C23.4922 56.3582 24.1428 55.6403 24.928 55.0571C26.5208 53.8681 28.2482 53.554 30.0653 54.1149C31.2992 54.4962 33.206 55.5282 35.427 58.2202C36.6832 59.7681 37.603 61.3385 37.7152 61.6526C37.8274 61.9666 37.6479 62.3256 37.3338 62.4377C37.0197 62.5499 36.6608 62.3704 36.5486 62.0564C36.3019 61.4731 33.1836 56.2236 29.5269 55.2365C28.1584 54.8552 26.9022 55.1244 25.6907 56.0441C24.9729 56.5826 24.4569 57.2107 24.0531 57.8388C24.8831 58.4221 25.6234 59.1176 26.274 59.9252C27.7322 61.7199 28.6296 63.9857 28.7417 66.1169C28.8539 68.2929 28.0911 69.8633 26.7676 70.2222C26.5881 70.2671 26.4311 70.2895 26.2516 70.2895C25.0177 70.312 23.8063 69.2351 22.8865 67.3283ZM22.9763 61.2263C22.8192 63.0659 23.2006 65.1522 24.0082 66.8123C24.7485 68.3154 25.7356 69.2576 26.4311 69.0781C27.1041 68.8986 27.5527 67.7321 27.463 66.229C27.3733 64.3446 26.5881 62.348 25.2869 60.7552C24.7485 60.1046 24.1428 59.5214 23.4698 59.0278C23.1557 59.7906 23.0211 60.5533 22.9763 61.2263Z" fill="#5DA3EE" id="Vector_12" stroke="#5DA3EE" stroke-linecap="round" stroke-linejoin="round" stroke-miterlimit="10" stroke-width="5"/>
</g>
<path d="M37.222 47.4746C36.5041 50.9743 37.065 55.9546 37.9848 58.6017C44.0867 76.1673 58.4443 79.3529 73.1383 80.6765C83.57 81.6187 98.4211 77.4685 98.4211 77.4685C101.091 72.9593 102.639 67.6874 102.639 62.1014C102.639 57.9287 101.786 53.958 100.261 50.3461C95.6393 39.4882 84.8711 31.8159 72.3756 31.8159H63.7162C52.3423 31.8159 42.4042 38.1422 37.222 47.4746Z" fill="#89CAF7" id="Vector_13"/>
<path d="M75.9196 39.3986H87.8318C89.0432 39.3986 90.0079 38.6807 90.0079 37.7609V21.519C90.0079 21.2498 89.9182 20.9806 89.7611 20.7786C89.1779 19.9262 87.6524 19.5897 86.5082 20.2402C81.9766 22.7977 74.5735 28.3612 73.7435 37.6936C73.6762 38.591 74.6633 39.3986 75.9196 39.3986Z" fill="#89CAF7" id="Vector_14"/>
<path d="M87.3612 39.3983H87.8547C89.0661 39.3983 90.0308 38.658 90.0308 37.7606V21.5186C90.0308 21.2494 89.9411 20.9802 89.784 20.7783C89.7391 20.8232 89.6943 20.8681 89.627 20.9129C87.0471 23.7844 83.3231 29.4602 84.3551 37.3792C84.5121 38.5234 85.8133 39.3983 87.3612 39.3983Z" fill="#5DA3EE" id="Vector_15"/>
<path d="M93.6197 50.2561C93.6197 49.2691 92.8345 48.4839 91.8475 48.4839C90.8604 48.4839 90.0752 49.2691 90.0752 50.2561C90.0752 51.2432 90.8604 52.0284 91.8475 52.0284C92.8345 52.0508 93.6197 51.2432 93.6197 50.2561Z" fill="#123169" id="Vector_16" stroke="#123169" stroke-linecap="round" stroke-linejoin="round" stroke-miterlimit="10" stroke-width="4"/>
<path d="M98.0176 58.0185V62.5501C98.0176 64.0981 99.2963 65.3768 100.844 65.3768H106.677C108.225 65.3768 109.504 64.0981 109.504 62.5501V58.0185C109.504 56.4706 108.225 55.1919 106.677 55.1919H100.844C99.2963 55.1919 98.0176 56.4706 98.0176 58.0185Z" fill="#89CAF7" id="Vector_17"/>
<g id="Group_5">
<path d="M56.1112 39.5778C56.1561 39.9816 56.4477 40.2508 56.7842 40.161C59.8801 39.2637 63.133 38.7926 66.2737 38.658C69.7285 38.5234 73.2281 38.7926 74.8433 39.1291C75.1574 39.1964 75.4715 38.9047 75.5388 38.4785C75.6061 38.0523 75.4042 37.6709 75.0677 37.6036C72.5327 37.1325 68.9433 36.9979 66.1839 37.1325C63.0208 37.2671 59.723 37.7382 56.5599 38.658C56.2907 38.7253 56.0663 39.1515 56.1112 39.5778Z" fill="#123169" id="Vector_18" stroke="#123169" stroke-linecap="round" stroke-linejoin="round" stroke-miterlimit="10" stroke-width="3"/>
</g>
<g id="Group_6">
<g id="Group_7">
<path d="M29.7517 14.9905C29.8639 14.9905 29.976 14.9681 30.1106 14.9457C30.7388 14.7438 31.0753 14.0932 30.8734 13.465L29.4376 8.82127C29.2357 8.19313 28.5852 7.85662 27.957 8.05853C27.3289 8.26043 26.9924 8.91101 27.1943 9.53915L28.6525 14.1829C28.7871 14.6765 29.2582 14.9905 29.7517 14.9905Z" fill="white" id="Vector_19"/>
<path d="M23.4705 19.9486C23.807 19.9486 24.1659 19.7915 24.3902 19.4999C24.794 18.9839 24.7043 18.2436 24.2108 17.8398L18.1761 13.0614C17.6601 12.6576 16.9198 12.7474 16.516 13.2409C16.1122 13.7569 16.202 14.4972 16.6955 14.901L22.7302 19.7018C22.9545 19.8588 23.2237 19.9486 23.4705 19.9486Z" fill="white" id="Vector_20"/>
<path d="M20.1725 27.4187C20.7334 27.4187 21.2269 27.0373 21.3166 26.454C21.4288 25.8259 21.025 25.1978 20.3744 25.0856L16.3588 24.3228C15.7306 24.2107 15.1025 24.6145 14.9903 25.2651C14.8782 25.8932 15.282 26.5213 15.9325 26.6335L19.9482 27.3963C20.0155 27.3963 20.1052 27.4187 20.1725 27.4187Z" fill="white" id="Vector_21"/>
</g>
</g>
<path d="M39.6225 47.2504C47.8617 47.2504 54.5409 40.5712 54.5409 32.332C54.5409 24.0928 47.8617 17.4136 39.6225 17.4136C31.3833 17.4136 24.7041 24.0928 24.7041 32.332C24.7041 40.5712 31.3833 47.2504 39.6225 47.2504Z" fill="#FDC961" id="Vector_22"/>
<path d="M40.4076 30.6494C38.1418 29.8418 37.8053 29.5501 37.8053 28.9444C37.8053 28.2041 38.9719 28.0471 39.959 28.0471C41.0133 28.0471 41.6639 28.3163 42.5613 28.6752L42.7856 28.765C42.9875 28.8547 43.167 28.8771 43.4362 28.8771C44.2886 28.8771 44.8719 28.249 44.8719 27.3741C44.8719 26.1402 43.1894 25.5569 42.4715 25.355C42.0453 25.2429 41.6863 25.1756 41.3723 25.1307V24.0315C41.3723 23.2463 40.7217 22.5957 39.9365 22.5957C39.1513 22.5957 38.5008 23.2463 38.5008 24.0315V25.1307C35.9433 25.4896 34.4851 26.8581 34.4851 28.9444C34.4851 31.5467 36.4144 32.6909 39.2859 33.6331C41.4171 34.3285 41.7985 34.7772 41.7985 35.3829C41.7985 36.3251 40.4525 36.4148 39.8916 36.4148C38.4335 36.4148 37.6707 35.9662 36.6836 35.3829L36.6163 35.338C36.392 35.2034 36.1004 35.1137 35.7639 35.1137C34.8889 35.1137 34.3057 35.697 34.3057 36.5719C34.3057 37.8282 35.8536 38.5909 36.8182 38.9274C37.4464 39.1293 37.9399 39.2415 38.411 39.3312V40.4305C38.411 41.2157 39.0616 41.8662 39.8468 41.8662C40.632 41.8662 41.2825 41.2157 41.2825 40.4305V39.2864C43.7054 38.8153 45.1411 37.2898 45.1411 35.181C45.1187 32.5338 42.9875 31.5467 40.4076 30.6494Z" fill="#FAFEFF" id="Vector_23"/>
</g>
</g>
</svg>