<?xml version="1.0" encoding="utf-8"?>
<svg xmlns="http://www.w3.org/2000/svg" fill="none" height="112" viewBox="0 0 136 112" width="136">
<g id="Ilus / Eleg">
<g id="Group 1028">
<path clip-rule="evenodd" d="M74.1633 103.658C49.4413 103.658 29.2959 102.132 29.2959 100.293C29.2959 98.4308 49.4413 96.9277 74.1633 96.9277C98.8852 96.9277 119.031 98.4532 119.031 100.293C119.031 102.132 98.8627 103.658 74.1633 103.658Z" fill="#1D4D8B" fill-rule="evenodd" id="Vector"/>
<path d="M121.117 59.5985C120.22 59.5985 119.367 59.8228 118.604 60.2042C117.819 57.4673 115.284 55.4482 112.278 55.4482C109.227 55.4482 106.647 57.5346 105.929 60.3837C105.099 59.8901 104.135 59.6209 103.125 59.6209C100.074 59.6209 97.584 62.111 97.584 65.162C97.584 65.3639 97.6064 65.5883 97.6288 65.7902H126.613C126.636 65.5883 126.658 65.3639 126.658 65.162C126.658 62.0886 124.19 59.5985 121.117 59.5985Z" fill="#D4ECF2" id="Vector_2"/>
<path d="M53.9288 22.8743C52.5828 22.8743 51.3041 23.2108 50.1599 23.794C48.971 19.6662 45.1797 16.6377 40.6929 16.6377C36.094 16.6377 32.2579 19.7784 31.1586 24.0184C29.9248 23.2781 28.489 22.8518 26.9411 22.8518C22.3422 22.8518 18.6406 26.5758 18.6406 31.1523C18.6406 31.4664 18.6631 31.7804 18.7079 32.0945H62.2068C62.2517 31.7804 62.2741 31.4664 62.2741 31.1523C62.2293 26.5982 58.5053 22.8743 53.9288 22.8743Z" fill="#D4ECF2" id="Vector_3"/>
<path d="M110.546 61.9998C110.546 40.7144 93.291 23.4592 72.0055 23.4592C50.7201 23.4592 33.4648 40.7144 33.4648 61.9998C33.4648 83.2853 50.7201 100.541 72.0055 100.541C93.291 100.541 110.546 83.2853 110.546 61.9998Z" fill="#89CAF7" id="Vector_4"/>
<g id="Group">
<path d="M62.8346 11.9939L61.4886 16.5928L60.1426 11.9939L61.4886 7.39502L62.8346 11.9939Z" fill="#FDC961" id="Vector_5"/>
<path d="M61.4886 10.6479L66.1099 11.994L61.4886 13.34L56.8896 11.994L61.4886 10.6479Z" fill="#FDC961" id="Vector_6"/>
</g>
<g id="Group_2">
<path d="M121.139 84.7239L119.793 89.3452L118.425 84.7239L119.793 80.125L121.139 84.7239Z" fill="#FDC961" id="Vector_7"/>
<path d="M119.793 83.3779L124.392 84.724L119.793 86.07L115.172 84.724L119.793 83.3779Z" fill="#FDC961" id="Vector_8"/>
</g>
<path d="M94.6005 84.0335C106.769 71.8647 106.769 52.1353 94.6005 39.9665C82.4317 27.7977 62.7023 27.7977 50.5335 39.9665C38.3647 52.1353 38.3647 71.8647 50.5335 84.0335C62.7023 96.2023 82.4317 96.2023 94.6005 84.0335Z" fill="#2C5FA1" id="Vector_9"/>
<path d="M89.8481 79.116C99.301 69.6631 99.301 54.3369 89.8481 44.884C80.3951 35.4311 65.0689 35.4311 55.616 44.884C46.1631 54.3369 46.1631 69.6631 55.616 79.116C65.0689 88.5689 80.3951 88.5689 89.8481 79.116Z" fill="#89CAF7" id="Vector_10"/>
<path d="M83.9065 73.4688C90.2406 67.1348 90.2406 56.8652 83.9065 50.5312C77.5725 44.1971 67.3029 44.1971 60.9688 50.5312C54.6348 56.8652 54.6348 67.1348 60.9688 73.4688C67.3029 79.8029 77.5725 79.8029 83.9065 73.4688Z" fill="#2C5FA1" id="Vector_11"/>
<path d="M65.3344 67.128C68.2956 70.9642 73.7919 71.6596 77.628 68.6984C81.4642 65.7371 82.1596 60.2409 79.1984 56.4047C76.2371 52.5686 70.7409 51.8731 66.9047 54.8344C63.0686 57.7956 62.3731 63.2919 65.3344 67.128Z" fill="#89CAF7" id="Vector_12"/>
<path d="M71.2475 63.3223C72.1 64.4216 73.6928 64.6235 74.792 63.771C75.8913 62.9185 76.0932 61.3257 75.2407 60.2265C74.3882 59.1272 72.7955 58.9253 71.6962 59.7778C70.597 60.6303 70.395 62.2231 71.2475 63.3223Z" fill="#123169" id="Vector_13"/>
<path d="M72.5479 62.6267H18.0341C17.5405 62.6267 17.1367 62.2229 17.1367 61.7294C17.1367 61.2358 17.5405 60.832 18.0341 60.832H72.5479C73.0414 60.832 73.4452 61.2358 73.4452 61.7294C73.4452 62.2229 73.0414 62.6267 72.5479 62.6267Z" fill="#123169" id="Vector_14" stroke="#123169" stroke-linecap="round" stroke-linejoin="round" stroke-miterlimit="10" stroke-width="3"/>
<g id="Group_3">
<g id="Group_4">
<path d="M25.2582 57.1529C24.4954 55.9639 23.1718 55.2236 21.7585 55.2236H13.2113C12.5832 55.2236 12.2018 55.9191 12.5383 56.4575L15.8585 61.6621L12.5383 66.8891C12.2018 67.4276 12.5832 68.123 13.2113 68.123H21.7585C23.1718 68.123 24.4954 67.4051 25.2582 66.1937L28.1297 61.6845L25.2582 57.1529Z" fill="#123169" id="Vector_15"/>
</g>
</g>
<g id="Group_5">
<g id="Group_6">
<path d="M106.67 13.9905C106.558 13.9905 106.446 13.9681 106.312 13.9457C105.683 13.7438 105.347 13.0932 105.549 12.465L106.985 7.82127C107.186 7.19313 107.837 6.85662 108.465 7.05853C109.093 7.26043 109.43 7.91101 109.228 8.53915L107.77 13.1829C107.635 13.6765 107.164 13.9905 106.67 13.9905Z" fill="white" id="Vector_16"/>
<path d="M112.952 18.9485C112.616 18.9485 112.257 18.7915 112.033 18.4999C111.629 17.9839 111.719 17.2436 112.212 16.8398L118.247 12.039C118.763 11.6352 119.503 11.7249 119.907 12.2184C120.311 12.7344 120.221 13.4747 119.727 13.8785L113.693 18.6793C113.468 18.8588 113.199 18.9485 112.952 18.9485Z" fill="white" id="Vector_17"/>
<path d="M116.25 26.4187C115.689 26.4187 115.195 26.0373 115.106 25.454C114.993 24.8259 115.397 24.1978 116.048 24.0856L120.063 23.3228C120.692 23.2107 121.32 23.6145 121.432 24.2651C121.544 24.8932 121.14 25.5213 120.49 25.6335L116.474 26.3963C116.407 26.3963 116.317 26.4187 116.25 26.4187Z" fill="white" id="Vector_18"/>
</g>
</g>
<g id="Group_7">
<path d="M95.9916 46.2499C104.231 46.2499 110.91 39.5707 110.91 31.3315C110.91 23.0923 104.231 16.4131 95.9916 16.4131C87.7524 16.4131 81.0732 23.0923 81.0732 31.3315C81.0732 39.5707 87.7524 46.2499 95.9916 46.2499Z" fill="#FDC961" id="Vector_19"/>
</g>
<g id="Group_8">
<path d="M93.8604 38.4881C93.8604 37.2767 94.8474 36.3345 96.0588 36.3345C97.2703 36.3345 98.2574 37.2767 98.2574 38.4881C98.2574 39.6995 97.2703 40.6866 96.0588 40.6866C94.8474 40.6866 93.8604 39.6995 93.8604 38.4881ZM94.152 30.569V23.7716C94.152 22.8294 94.825 21.9769 95.7448 21.8423C96.9338 21.6628 97.9433 22.5826 97.9433 23.7267V30.5914C97.9433 31.0177 97.876 31.4439 97.7189 31.8253L96.9562 33.7995C96.8889 34.3154 96.5524 34.6968 96.0364 34.6968C95.5204 34.6968 95.1839 34.3154 95.1166 33.7995L94.3539 31.8253C94.2417 31.399 94.152 30.9952 94.152 30.569Z" fill="white" id="Vector_20"/>
</g>
<path d="M85.6276 35.7061L83.7432 47.5959L95.2068 42.324L85.6276 35.7061Z" fill="#FDC961" id="Vector_21"/>
</g>
</g>
</svg>