<?xml version="1.0" encoding="utf-8"?>
<svg xmlns="http://www.w3.org/2000/svg" fill="none" height="112" viewBox="0 0 136 112" width="136">
<g id="Ilus / Redes">
<g id="Group">
<path d="M111.028 71.658C109.682 71.658 108.404 71.9945 107.26 72.5778C106.071 68.45 102.279 65.4438 97.7925 65.4438C93.1936 65.4438 89.3575 68.5846 88.2582 72.8245C87.0244 72.0842 85.5886 71.658 84.0407 71.658C79.4418 71.658 75.7402 75.382 75.7402 79.9584C75.7402 80.2725 75.7627 80.5866 75.8075 80.9006H119.262C119.306 80.5866 119.329 80.2725 119.329 79.9584C119.329 75.382 115.605 71.658 111.028 71.658Z" fill="#D4ECF2" id="Vector"/>
<g id="Group_2">
<path clip-rule="evenodd" d="M36.5488 85.1635L53.3517 78.0969L44.0641 70.1329C44.0641 70.1329 39.869 69.9086 39.869 70.1329C39.869 70.3572 36.5488 85.1635 36.5488 85.1635Z" fill="#123169" fill-rule="evenodd" id="Vector_2"/>
<path clip-rule="evenodd" d="M32.4885 61.7425L106.318 34.3958C106.744 34.2388 107.036 34.8221 106.654 35.0688C98.7351 39.9594 83.6822 48.1477 76.795 52.0511C71.1642 55.2367 65.7801 58.1531 60.1268 61.4508L43.7951 71.2768C44.9841 72.3312 51.1758 77.1993 52.3872 78.2985C52.4096 78.321 52.432 78.3658 52.4769 78.3883C55.6176 80.6316 58.691 83.1218 61.8317 85.567C64.2546 87.4515 66.4531 89.4256 68.8535 91.2203C70.0425 92.1177 71.7474 91.8485 72.6223 90.637C72.914 90.2332 73.2505 89.807 73.587 89.291C74.5516 87.8104 75.1349 86.9804 76.0771 85.4997C77.7821 82.8526 79.33 80.5868 81.1471 77.9845L101.136 47.699C102.796 45.2313 104.478 42.8084 106.206 40.2061C107.17 38.7255 107.753 37.8955 108.696 36.4148C108.942 36.0335 109.167 35.697 109.414 35.4053C110.244 34.2837 109.279 32.7133 107.911 32.9376L18.3777 46.6222C16.8522 46.8465 16.2914 48.7534 17.4355 49.7853C17.8169 50.1218 18.1758 50.4583 18.5123 50.7275L32.2417 61.6976C32.309 61.7425 32.3988 61.7649 32.4885 61.7425Z" fill="#89CAF7" fill-rule="evenodd" id="Vector_3"/>
<path clip-rule="evenodd" d="M36.7281 85.0285C38.0965 82.1121 43.0095 72.7348 43.6825 71.3439L60.104 61.4507C65.7573 58.1529 71.1413 55.2366 76.7722 52.051C84.0856 47.9232 100.574 38.9497 108 34.2162C108.224 34.0816 108.045 33.7451 107.82 33.8348L32.3535 61.7872C32.9144 65.7804 33.5874 69.8184 34.2604 73.9014C34.5744 75.8531 34.8437 77.8946 35.1802 80.1379L35.8756 84.8939C35.898 85.0733 36.0102 85.2079 36.1897 85.2752C36.3916 85.3425 36.6159 85.2304 36.7281 85.0285Z" fill="#5DA3EE" fill-rule="evenodd" id="Vector_4"/>
</g>
<path clip-rule="evenodd" d="M63.1769 104.658C38.455 104.658 18.3096 103.132 18.3096 101.293C18.3096 99.4308 38.455 97.9277 63.1769 97.9277C87.8988 97.9277 108.044 99.4532 108.044 101.293C108.044 103.132 87.8764 104.658 63.1769 104.658Z" fill="#1D4D8B" fill-rule="evenodd" id="Vector_5"/>
<path d="M77.9382 23.3582C77.0409 23.3582 76.1884 23.5826 75.4257 23.9639C74.6405 21.227 72.1279 19.208 69.1218 19.208C66.0708 19.208 63.4909 21.2943 62.7731 24.1434C61.943 23.6499 60.9784 23.3807 59.9689 23.3807C56.9179 23.3807 54.4277 25.8708 54.4277 28.9218C54.4277 29.1237 54.4502 29.348 54.4726 29.5499H83.4569C83.4793 29.348 83.5018 29.1237 83.5018 28.9218C83.4793 25.8484 81.0116 23.3582 77.9382 23.3582Z" fill="#D4ECF2" id="Vector_6"/>
<g id="Group_3">
<path d="M96.3795 19.0511L95.0335 23.65L93.6875 19.0511L95.0335 14.4521L96.3795 19.0511Z" fill="#FDC961" id="Vector_7"/>
<path d="M95.0335 17.7051L99.6548 19.0511L95.0335 20.3971L90.4346 19.0511L95.0335 17.7051Z" fill="#FDC961" id="Vector_8"/>
</g>
<g id="Group_4">
<path d="M22.3258 70.2449L20.9798 74.8662L19.6113 70.2449L20.9798 65.646L22.3258 70.2449Z" fill="#FDC961" id="Vector_9"/>
<path d="M20.9797 68.8989L25.5786 70.2449L20.9797 71.591L16.3584 70.2449L20.9797 68.8989Z" fill="#FDC961" id="Vector_10"/>
</g>
<g id="Group_5">
<g id="Group_6">
<path d="M32.4203 43.9748H51.1524C54.9886 43.9748 58.0844 40.8789 58.0844 37.0428V26.5214C58.0844 22.6852 54.9886 19.5894 51.1524 19.5894H32.4203C28.5841 19.6118 25.4883 22.7076 25.4883 26.5214V37.0428C25.4883 40.8789 28.5841 43.9748 32.4203 43.9748Z" fill="#FDC961" id="Vector_11"/>
<path d="M48.0112 42.5615H35.5605L41.7747 49.2692L48.0112 42.5615Z" fill="#FDC961" id="Vector_12"/>
</g>
<path d="M35.4492 34.2162C38.3432 38.03 41.7755 39.7125 41.7755 39.7125C41.7755 39.7125 45.2079 38.03 48.1018 34.2162C50.3227 31.2774 50.2106 26.6561 47.025 25.6466C43.5029 24.5473 41.7755 29.8417 41.7755 29.8417C41.7755 29.8417 40.0257 24.5024 36.526 25.6466C33.3405 26.6785 33.2283 31.255 35.4492 34.2162Z" fill="white" id="Vector_13"/>
</g>
<g id="Group_7">
<g id="Group_8">
<path d="M29.28 14.9905C29.3922 14.9905 29.5044 14.9681 29.639 14.9457C30.2671 14.7438 30.6036 14.0932 30.4017 13.465L28.966 8.82127C28.7641 8.19313 28.1135 7.85662 27.4853 8.05853C26.8572 8.26043 26.5207 8.91101 26.7226 9.53915L28.1808 14.1829C28.3154 14.6765 28.7865 14.9905 29.28 14.9905Z" fill="white" id="Vector_14"/>
<path d="M22.9988 19.9486C23.3353 19.9486 23.6942 19.7915 23.9186 19.4999C24.3224 18.9839 24.2326 18.2436 23.7391 17.8398L17.7044 13.0614C17.1885 12.6576 16.4481 12.7474 16.0443 13.2409C15.6405 13.7569 15.7303 14.4972 16.2238 14.901L22.2585 19.7018C22.4828 19.8588 22.752 19.9486 22.9988 19.9486Z" fill="white" id="Vector_15"/>
<path d="M19.7008 27.4187C20.2617 27.4187 20.7552 27.0373 20.8449 26.454C20.9571 25.8259 20.5533 25.1978 19.9027 25.0856L15.8871 24.3228C15.259 24.2107 14.6308 24.6145 14.5186 25.2651C14.4065 25.8932 14.8103 26.5213 15.4609 26.6335L19.4765 27.3963C19.5438 27.3963 19.6335 27.4187 19.7008 27.4187Z" fill="white" id="Vector_16"/>
</g>
</g>
</g>
</g>
</svg>